<?xml version="1.0" encoding="UTF-8"?>
<svg id="_·_ÀÌ_î_1" data-name="·¹ÀÌ¾î 1" xmlns="http://www.w3.org/2000/svg" viewBox="0 0 124.38 65.08">
  <defs>
    <style>
      .cls-1 {
        fill: none;
        stroke-miterlimit: 10;
        stroke-width: .55px;
      }

      .cls-1, .cls-2 {
        stroke: #0056a2;
      }

      .cls-3, .cls-2 {
        fill: #0056a2;
      }

      .cls-2 {
        stroke-linecap: round;
        stroke-linejoin: round;
        stroke-width: 3.11px;
      }
    </style>
  </defs>
  <path class="cls-2" d="M110.35,47.08c0,1.94-.58,3.53-1.73,4.75-1.22,1.37-2.88,2.02-4.97,2.02h-24.19v-6.77h24.19v-13.25h-18c-1.73,0-3.17-.5-4.32-1.37s-1.87-2.09-2.23-3.6c-.14-.58-.22-1.22-.22-1.87v-10.37c0-1.73.58-3.31,1.87-4.68,1.3-1.44,2.95-2.09,4.9-2.09h22.39v6.77h-22.39v10.37h18c1.94,0,3.53.65,4.82,2.02,1.22,1.3,1.87,2.88,1.87,4.82v13.25Z"/>
  <polygon class="cls-2" points="73.56 16.62 60.02 16.62 60.02 53.84 53.25 53.84 53.25 16.62 39.79 16.62 39.79 9.85 73.56 9.85 73.56 16.62"/>
  <path class="cls-2" d="M34.17,53.84H8.32c-3.67,0-5.83-1.51-6.48-4.54-.22-.65-.29-1.44-.29-2.23v-30.46c0-1.73.65-3.31,1.94-4.68,1.22-1.44,2.88-2.09,4.82-2.09h25.85v6.77H8.32v30.46h25.85v6.77Z"/>
  <g>
    <path class="cls-3" d="M118.56,2.8h.29c.58,0,.94.07,1.22.22.29.07.5.29.65.58.22.22.29.58.29.86,0,.43-.14.79-.43,1.08s-.72.5-1.3.58c.22.07.43.14.5.29.22.22.43.43.65.79l1.08,1.66h-1.01l-.79-1.3c-.22-.36-.43-.65-.58-.79-.14-.22-.29-.36-.43-.43,0,0-.07,0-.14-.07v-.79h.14c.36,0,.65,0,.86-.07s.36-.22.43-.36c.14-.22.22-.36.22-.58,0-.29-.14-.5-.36-.72-.22-.14-.5-.22-.94-.22h-.36v-.72ZM116.18,8.84V2.8h2.38v.72h-1.58v1.94h1.58v.79c-.07,0-.14-.07-.22-.07h-1.37v2.66h-.79Z"/>
    <path class="cls-1" d="M118.56.28c3.02,0,5.54,2.45,5.54,5.54s-2.52,5.54-5.54,5.54-5.62-2.45-5.62-5.54,2.52-5.54,5.62-5.54Z"/>
  </g>
  <path class="cls-3" d="M98.11,63.71v-.43h.07c.29,0,.5-.07.72-.29.14-.22.22-.5.22-.86s-.07-.65-.22-.86c-.22-.22-.43-.36-.72-.36h-.07v-.36h.07c.43,0,.79.14,1.08.43.22.22.36.65.36,1.15s-.14.86-.36,1.15c-.29.29-.65.43-1.15.43h0ZM99.98,63.56v-.58c.29.22.58.29.86.29.43,0,.65-.14.65-.43,0-.07,0-.14-.07-.14,0-.07-.07-.14-.14-.22,0,0-.07-.07-.22-.07-.07-.07-.14-.07-.22-.14-.14,0-.29-.07-.36-.14-.14-.07-.22-.14-.29-.22-.07,0-.14-.14-.14-.22-.07-.07-.07-.14-.07-.29s.07-.29.14-.36c0-.14.14-.22.22-.29.14-.07.22-.14.36-.22h.43c.29,0,.5,0,.72.14v.43c-.22-.14-.43-.22-.79-.22-.07,0-.14.07-.22.07s-.14.07-.22.07c0,.07-.07.07-.07.14q-.07.07-.07.14c0,.07,0,.14.07.22,0,.07.07.14.07.14.07.07.14.07.22.14.07,0,.22.07.29.07.14.07.29.14.36.14.14.07.22.14.29.22s.14.14.14.22c.07.14.07.22.07.36s0,.29-.07.36c-.07.14-.14.22-.29.29-.07.07-.22.14-.36.14-.14.07-.29.07-.5.07-.29,0-.58-.07-.79-.14h0ZM102.72,59.82c-.07,0-.14-.07-.22-.07-.07-.07-.07-.14-.07-.29,0-.07,0-.14.07-.22s.14-.07.22-.07.22,0,.22.07c.07.07.14.14.14.22,0,.14-.07.22-.14.29,0,0-.14.07-.22.07h0ZM103,62.77c0,.29.07.43.29.43h.22v.43h-.58c-.14-.07-.22-.07-.22-.14-.07-.07-.14-.14-.22-.29v-2.59h.5v2.16h0ZM106.32,63.64h-.5v-.5h0c-.22.43-.58.58-1.01.58-.72,0-1.08-.43-1.08-1.3v-1.8h.5v1.73c0,.65.29.94.72.94.29,0,.43-.07.65-.22.14-.22.22-.43.22-.72v-1.73h.5v3.02h0ZM111.36,63.64h-.5v-1.73c0-.36,0-.58-.14-.72-.07-.22-.29-.29-.5-.29s-.43.14-.58.29c-.14.22-.22.43-.22.72v1.73h-.43v-1.8c0-.58-.29-.94-.72-.94-.22,0-.43.14-.5.29-.14.22-.22.43-.22.72v1.73h-.5v-3.02h.5v.43h0c.22-.36.5-.5.94-.5.22,0,.36,0,.58.14.14.14.22.29.29.43.22-.36.58-.58,1.01-.58.65,0,1.01.36,1.01,1.22v1.87ZM98.11,60.54v.36c-.29,0-.5.14-.72.36-.14.22-.29.5-.29.86s.14.65.29.86c.22.22.43.29.72.29v.43h0c-.43,0-.79-.14-1.08-.43s-.43-.65-.43-1.15.14-.86.43-1.15.65-.43,1.08-.43h0ZM94.87,63.71v-.43c.29,0,.5-.07.65-.29.22-.22.29-.58.29-.94s-.07-.65-.22-.86c-.14-.14-.36-.29-.65-.29h-.07v-.36h.22c.36,0,.65.14.86.36.22.29.36.65.36,1.15s-.14.86-.36,1.22c-.29.29-.58.43-1.01.43h-.07ZM94.87,60.54v.36c-.22.07-.43.14-.65.36-.14.14-.22.43-.22.72v.43c0,.22.07.43.22.65.14.14.36.22.65.22h0v.43c-.36,0-.65-.14-.86-.5h0v1.87h-.5v-4.46h.5v.5h0c.22-.36.5-.58.86-.58h0ZM85.36,62.84v-.5.5h0ZM85.36,60.68l1.15,2.95-.29.58c-.07.29-.29.43-.5.43-.07,0-.22,0-.29-.07v.5h.29c.43,0,.79-.29,1.08-.94l1.37-3.53h-.5l-.86,2.3c0,.14,0,.22-.07.29h0c0-.14-.07-.22-.07-.29l-.79-2.3h-.5v.07h0ZM92.85,63.64h-.5v-1.73c0-.36-.07-.58-.14-.72-.14-.22-.29-.29-.58-.29-.22,0-.36.14-.5.29-.14.22-.22.43-.22.72v1.73h-.5v-1.8c0-.58-.22-.94-.72-.94-.22,0-.36.14-.5.29-.14.22-.22.43-.22.72v1.73h-.5v-3.02h.5v.43h0c.22-.36.58-.5.94-.5.22,0,.43,0,.58.14s.29.29.29.43c.29-.36.58-.58,1.01-.58.72,0,1.08.36,1.08,1.22v1.87ZM85.36,60.61v.07l-.07-.07h.07ZM85.36,62.34c-.07-.07-.07-.14-.07-.22-.07-.07-.14-.22-.29-.29-.07-.14-.22-.22-.36-.29s-.29-.22-.43-.29-.29-.14-.36-.14c-.14-.07-.22-.14-.29-.22l-.22-.22c0-.07-.07-.22-.07-.29,0-.14.07-.22.14-.29,0-.07.07-.14.14-.22.14-.07.22-.07.29-.14h.36c.43,0,.72.07,1.01.29v-.58c-.22-.14-.5-.14-.94-.14-.22,0-.36,0-.58.07-.14,0-.29.07-.43.22-.14.07-.29.14-.36.29s-.14.36-.14.58c0,.14,0,.29.07.36.07.14.14.22.22.36.14.07.22.14.36.22s.29.14.43.29c.14.07.29.07.36.14.14.07.29.14.36.22l.22.22c0,.14.07.22.07.36,0,.22-.07.36-.22.43-.22.14-.43.22-.72.22h-.29c-.14-.07-.22-.07-.29-.14-.14,0-.22-.07-.36-.07-.07-.07-.14-.14-.22-.14v.58c.07,0,.14.07.22.07.07.07.22.07.29.07.14.07.22.07.29.07h.29c.22,0,.36,0,.58-.07.22,0,.36-.07.5-.14.14-.14.22-.22.29-.36.07-.07.07-.22.14-.29v-.5h0ZM76.15,65.08v-.43c.58-.07.86-.43.86-1.15v-.36h0c-.22.36-.5.58-.86.58v-.43c.22,0,.43-.07.65-.29.14-.14.22-.43.22-.72v-.43c0-.29-.07-.5-.22-.65s-.36-.29-.65-.29h0v-.36c.36,0,.72.14.86.5h0v-.43h.5v2.81c0,1.01-.43,1.58-1.37,1.66h0ZM80.68,60.61l-1.37,3.53c-.29.65-.65.94-1.08.94h-.29v-.5c.07.07.14.07.29.07.22,0,.43-.14.5-.43l.29-.58-1.22-3.02h.58l.79,2.3c0,.07.07.14.07.29h0c.07-.07.07-.14.07-.29l.86-2.3h.5ZM76.15,60.54v.36c-.29.07-.5.14-.65.36-.22.22-.29.5-.29.94,0,.36.07.58.22.79.22.22.43.29.72.29h0v.43h-.14c-.43,0-.72-.14-.94-.43-.22-.22-.36-.58-.36-1.08s.14-.94.36-1.22c.29-.29.65-.43,1.08-.43h0ZM76.15,64.64v.43h-.22c-.36,0-.72-.07-1.01-.22v-.5c.36.22.65.29,1.01.29h.22ZM72.91,63.71v-.43h0c.29,0,.58-.07.72-.29s.29-.5.29-.86-.14-.65-.29-.86-.43-.36-.72-.36h0v-.36h0c.5,0,.86.14,1.08.43.29.22.43.65.43,1.15s-.14.86-.43,1.15-.65.43-1.08.43ZM72.91,60.54v.36c-.36,0-.58.14-.72.36-.22.22-.29.5-.29.86s.07.65.29.86c.14.22.36.29.72.29v.43h-.07c-.43,0-.79-.14-1.08-.43-.22-.29-.36-.65-.36-1.15s.14-.86.43-1.15c.22-.29.58-.43,1.08-.43h0ZM68.23,63.71v-.43h.07c.29,0,.5-.07.72-.29.14-.22.22-.5.22-.86s-.07-.65-.22-.86c-.22-.22-.43-.36-.72-.36h-.07v-.36h.07c.43,0,.79.14,1.08.43.22.22.36.65.36,1.15s-.14.86-.36,1.15c-.29.29-.65.43-1.15.43h0ZM70.75,62.77c0,.29.07.43.36.43h.22v.43h-.65c-.07-.07-.14-.07-.22-.14s-.14-.14-.14-.29c-.07-.07-.07-.22-.07-.36v-3.74h.5v3.67ZM68.23,60.54v.36c-.29,0-.5.14-.72.36-.14.22-.29.5-.29.86s.14.65.29.86c.22.22.43.29.72.29v.43h0c-.43,0-.79-.14-1.08-.43s-.43-.65-.43-1.15.14-.86.43-1.15.65-.43,1.08-.43h0ZM56.13,63.71v-.43h.14c.36,0,.72-.07,1.01-.29v.43c-.29.22-.65.29-1.08.29h-.07ZM56.13,62.27v-.43h.86c0-.29-.07-.5-.22-.65-.14-.22-.36-.29-.58-.29h-.07v-.36h.07c.43,0,.72.07.94.36s.36.65.36,1.08v.29h-1.37ZM60.02,63.49c-.22.14-.5.22-.79.22-.43,0-.79-.14-1.08-.43s-.36-.65-.36-1.08c0-.5.14-.94.43-1.22s.65-.43,1.15-.43c.22,0,.5,0,.65.14v.5c-.22-.14-.43-.29-.72-.29s-.58.14-.72.36c-.22.22-.36.5-.36.86s.14.65.29.86c.22.22.5.29.79.29s.5-.07.72-.22v.43h0ZM63.04,63.64h-.43v-1.73c0-.65-.29-1.01-.72-1.01-.29,0-.43.14-.65.29-.14.22-.22.43-.22.72v1.73h-.5v-4.54h.5v2.02h0c.22-.43.58-.58,1.01-.58.72,0,1.01.36,1.01,1.22v1.87h0ZM66.28,63.64h-.5v-1.73c0-.65-.22-1.01-.72-1.01-.22,0-.43.14-.58.29-.14.22-.22.43-.22.72v1.73h-.5v-3.02h.5v.5h0c.22-.43.58-.58,1.01-.58.29,0,.58.07.72.29.22.22.29.58.29.94v1.87ZM56.13,60.54v.36c-.22.07-.36.14-.5.29s-.29.36-.29.65h.79v.43h-.79c0,.29.07.58.22.79.14.14.36.22.58.22v.43c-.36,0-.72-.14-.94-.43-.07,0-.14-.07-.14-.14v-1.94c.07-.07.07-.14.14-.22.29-.29.58-.43.94-.43h0ZM55.05,59.82v-.43h.22v.43h-.22ZM55.05,59.39v.43h-1.01v3.82h-.5v-3.82h-1.22v-.43h2.74ZM55.05,61.19c-.14.29-.22.58-.22.94,0,.43.07.72.22,1.01v-1.94h0ZM45.55,63.71v-.43h0c.29,0,.58-.07.72-.29s.22-.5.22-.86-.07-.65-.22-.86-.43-.36-.72-.36h0v-.36h0c.5,0,.86.14,1.08.43.29.22.36.65.36,1.15s-.07.86-.36,1.15-.65.43-1.08.43h0ZM50.08,63.64h-.5v-1.73c0-.65-.22-1.01-.72-1.01-.22,0-.43.14-.58.29-.14.22-.22.43-.22.72v1.73h-.5v-3.02h.5v.5h0c.22-.43.58-.58,1.01-.58.29,0,.58.07.72.29.22.22.29.58.29.94v1.87ZM45.55,60.54v.36c-.36,0-.58.14-.79.36-.14.22-.22.5-.22.86s.07.65.22.86c.22.22.43.29.79.29v.43h-.07c-.43,0-.79-.14-1.08-.43-.22-.29-.36-.65-.36-1.15s.14-.86.36-1.15c.29-.29.65-.43,1.15-.43h0ZM39.21,63.71v-.43c.22,0,.36-.07.5-.22s.22-.36.22-.65v-.29l-.72.07v-.36l.72-.14c0-.5-.22-.79-.65-.79h-.07v-.36h.14c.72,0,1.08.36,1.08,1.15v1.94h-.5v-.43h0c-.14.29-.43.43-.72.5h0ZM42.52,63.64c-.14.07-.29.07-.43.07-.58,0-.86-.29-.86-.86v-1.87h-.5v-.36h.5v-.79l.5-.14v.94h.79v.36h-.79v1.73c0,.22.07.36.14.5.07.07.14.07.29.07s.29,0,.36-.07v.43h0ZM43.17,59.82c-.14,0-.22-.07-.29-.07,0-.07-.07-.14-.07-.29,0-.07.07-.14.07-.22.07-.07.14-.07.29-.07.07,0,.14,0,.22.07s.07.14.07.22c0,.14,0,.22-.07.29-.07,0-.14.07-.22.07h0ZM43.39,62.77c0,.29.07.43.29.43h.29v.43h-.65c-.07-.07-.14-.07-.22-.14s-.14-.14-.14-.29c-.07-.07-.07-.22-.07-.36v-2.23h.5v2.16ZM39.21,60.54v.36c-.29.07-.65.14-.94.43v-.5c.29-.22.58-.29.94-.29h0ZM39.21,61.84v.36h0c-.22.07-.43.07-.5.14-.14.14-.22.29-.22.43s.07.29.22.36c.07.14.22.14.36.14h.14v.43h-.22c-.29,0-.58-.07-.72-.22s-.29-.36-.29-.65c0-.58.36-.94,1.01-1.01h.22ZM35.4,63.64h.07v-.43h-.07v.22l1.73-2.45h-1.66v-.36h2.38v.14l-1.8,2.45h1.8v.43h-2.45ZM35.4,63.2v.22l-.07.07v.14h.07-.58c-.07-.07-.14-.07-.22-.14s-.14-.14-.14-.29c-.07-.07-.07-.22-.07-.36v-2.23h.5v2.16c0,.29.07.43.29.43h.22ZM29.92,63.71v-.43c.22,0,.36-.07.5-.22s.22-.36.22-.65v-.29l-.72.07v-.36l.72-.14c0-.5-.22-.79-.58-.79h-.14v-.36h.14c.72,0,1.08.36,1.08,1.15v1.94h-.5v-.43h0c-.14.29-.36.43-.72.5h0ZM32.3,62.77c0,.29.07.43.29.43h.29v.43h-.65c-.07-.07-.14-.07-.22-.14s-.14-.14-.14-.29c-.07-.07-.07-.22-.07-.36v-3.74h.5v3.67h0ZM33.6,62.77c0,.29.07.43.29.43h.29v.43h-.65c-.07-.07-.14-.07-.22-.14s-.14-.14-.14-.29c-.07-.07-.07-.22-.07-.36v-3.74h.5v3.67h0ZM34.68,59.82c-.14,0-.22-.07-.29-.07,0-.07-.07-.14-.07-.29,0-.07.07-.14.07-.22.07-.07.14-.07.29-.07.07,0,.14,0,.22.07s.07.14.07.22c0,.14,0,.22-.07.29-.07,0-.14.07-.22.07ZM29.92,60.54v.36c-.29.07-.65.14-.86.43v-.5c.22-.22.58-.29.86-.29h0ZM29.92,61.84v.36h0c-.22.07-.36.07-.5.14-.14.14-.14.29-.14.43s0,.29.14.36c.07.14.22.14.43.14h.07v.43h-.22c-.29,0-.5-.07-.72-.22-.14-.14-.22-.36-.22-.65,0-.58.29-.94,1.01-1.01h.14ZM9.4,63.71v-.43c.22,0,.36-.07.5-.22s.22-.36.22-.65v-.29l-.72.07v-.36l.72-.14c0-.5-.22-.79-.65-.79h-.07v-.36h.14c.72,0,1.08.36,1.08,1.15v1.94h-.5v-.43h0c-.14.29-.43.43-.72.5h0ZM13.87,63.64h-.5v-1.73c0-.65-.29-1.01-.72-1.01-.29,0-.43.14-.65.29-.14.22-.22.43-.22.72v1.73h-.5v-3.02h.5v.5h0c.22-.43.58-.58,1.01-.58.36,0,.58.07.79.29.14.22.29.58.29.94v1.87h0ZM19.41,63.49c-.29.14-.72.22-1.15.22-.65,0-1.15-.22-1.51-.58s-.5-.94-.5-1.51c0-.72.22-1.3.58-1.73.43-.36.94-.58,1.58-.58.43,0,.72,0,1.01.14v.58c-.29-.22-.65-.29-1.01-.29-.5,0-.86.14-1.22.5-.29.29-.43.72-.43,1.3,0,.5.14.94.43,1.22.29.36.65.5,1.15.5.43,0,.79-.07,1.08-.29v.5h0ZM21.57,61.12c-.07-.07-.22-.14-.36-.14-.22,0-.43.14-.58.29-.07.22-.14.5-.14.79v1.58h-.5v-3.02h.5v.58h0c.07-.22.14-.36.29-.5.14-.07.29-.14.5-.14h.29v.58h0ZM24.52,60.61l-1.44,3.53c-.22.65-.58.94-1.01.94h-.36v-.5c.14.07.22.07.29.07.29,0,.43-.14.58-.43l.29-.58-1.22-3.02h.5l.86,2.3c0,.07,0,.14.07.29h0c0-.07,0-.14.07-.29l.86-2.3h.5ZM24.6,63.56v-.58c.29.22.58.29.86.29.43,0,.65-.14.65-.43v-.14c-.07-.07-.14-.14-.14-.22-.07,0-.14-.07-.22-.07-.14-.07-.22-.07-.29-.14-.14,0-.29-.07-.36-.14-.14-.07-.22-.14-.29-.22-.07,0-.07-.14-.14-.22,0-.07-.07-.14-.07-.29s.07-.29.14-.36c.07-.14.14-.22.22-.29l.43-.22h.43c.22,0,.5,0,.65.14v.43c-.22-.14-.43-.22-.72-.22-.14,0-.22.07-.29.07s-.14.07-.14.07c-.07.07-.14.07-.14.14s-.07.07-.07.14.07.14.07.22.07.14.14.14c0,.07.07.07.14.14.14,0,.22.07.29.07.14.07.29.14.36.14.14.07.22.14.29.22l.22.22v.36c0,.14,0,.29-.07.36-.07.14-.14.22-.29.29-.07.07-.22.14-.36.14-.14.07-.29.07-.43.07-.36,0-.65-.07-.86-.14h0ZM28.56,63.64c-.14.07-.29.07-.43.07-.58,0-.79-.29-.79-.86v-1.87h-.58v-.36h.58v-.79l.43-.14v.94h.79v.36h-.79v1.73c0,.22.07.36.14.5.07.07.14.07.36.07.07,0,.22,0,.29-.07v.43ZM4.51,63.64h-.58l-.43-1.22h-.94v-.43h.72l-.65-1.8c0-.07-.07-.14-.07-.29h0v-.5h.29l1.66,4.25h0ZM9.4,60.54v.36c-.29.07-.65.14-.86.43v-.5c.22-.22.58-.29.86-.29h0ZM9.4,61.84v.36h0c-.22.07-.43.07-.5.14-.14.14-.22.29-.22.43s.07.29.22.36c.07.14.22.14.43.14h.07v.43h-.22c-.29,0-.58-.07-.72-.22s-.29-.36-.29-.65c0-.58.36-.94,1.01-1.01h.22ZM4.58,63.56v-.58c.29.22.58.29.94.29.43,0,.65-.14.65-.43,0-.07-.07-.14-.07-.14-.07-.07-.07-.14-.14-.22-.07,0-.14-.07-.22-.07-.14-.07-.22-.07-.29-.14-.14,0-.29-.07-.36-.14s-.22-.14-.29-.22c-.07,0-.07-.14-.14-.22,0-.07-.07-.14-.07-.29s.07-.29.14-.36c.07-.14.14-.22.22-.29l.43-.22h.43c.22,0,.5,0,.72.14v.43c-.29-.14-.5-.22-.79-.22-.07,0-.22.07-.29.07s-.14.07-.14.07c-.07.07-.14.07-.14.14s-.07.07-.07.14.07.14.07.22.07.14.14.14c.07.07.14.07.22.14.07,0,.14.07.22.07.14.07.29.14.36.14.14.07.22.14.29.22l.22.22c0,.14.07.22.07.36s-.07.29-.14.36c-.07.14-.14.22-.29.29-.07.07-.22.14-.36.14-.14.07-.29.07-.43.07-.36,0-.58-.07-.86-.14h0ZM7.39,59.82c-.14,0-.22-.07-.29-.07,0-.07-.07-.14-.07-.29,0-.07.07-.14.07-.22.07-.07.14-.07.29-.07.07,0,.14,0,.22.07s.07.14.07.22c0,.14,0,.22-.07.29-.07,0-.14.07-.22.07h0ZM7.6,62.77c0,.29.07.43.29.43h.29v.43h-.65c-.07-.07-.14-.07-.22-.14s-.14-.14-.14-.29c-.07-.07-.07-.22-.07-.36v-2.23h.5v2.16ZM2.56,62.41h-.94l-.43,1.22h-.5l1.66-4.25h.22v.5h0c0,.14-.07.22-.07.29l-.65,1.8h.72v.43Z"/>
</svg>