<svg xmlns="http://www.w3.org/2000/svg" xml:space="preserve" width="643.95929" height="100.00001" viewBox="0 0 643.95928 100.00001"><path d="M256.61 261.709c-8.49-8.493-22.388-8.493-30.881 0l-15.688 15.69c-8.493 8.492-8.493 22.39-.001 30.881l15.69 15.69c8.492 8.492 22.39 8.492 30.88 0l15.69-15.69c8.493-8.491 8.493-22.389 0-30.882z" style="fill:#ed1c24;fill-opacity:1;fill-rule:nonzero;stroke:none;stroke-width:1.1028" transform="matrix(1.33333 0 0 -1.33333 -271.561 440.453)"/><path d="M231.865 269.793a2.313 2.313 0 0 0-2.316 2.223c-.025.618.192 1.21.611 1.666.42.457.993.724 1.611.748a2.318 2.318 0 1 0 .193-4.635l-.1-.002M240.307 312.62c-1.274 0-2.293-.398-3.117-1.218-1.78-1.769-2.713-5.418-2.63-10.277.1-5.99 1.527-17.742 6.238-23.792.764-.98 1.585-1.763 2.442-2.326.829-.55 1.759-1.086 3.212-1.086.394 0 .817.04 1.26.12 2.701.648 6.085 3.655 8.601 7.657.384.61 1.043.974 1.764.974a2.077 2.077 0 0 0 2.027-1.619c.123-.542.03-1.1-.267-1.57-3.183-5.06-7.386-8.615-11.24-9.507a11.456 11.456 0 0 0-2.16-.216c-2.487 0-4.242.946-5.491 1.772-1.236.817-2.39 1.909-3.431 3.243-6.632 8.518-7.087 24.486-7.116 26.279-.072 4.25.539 10.006 3.86 13.301 1.618 1.607 3.649 2.422 6.03 2.422h.388c2.388 0 4.42-.815 6.04-2.422 3.32-3.295 3.93-9.051 3.86-13.301-.077-4.427-.888-13.002-5.478-20.692a2.098 2.098 0 0 0-1.789-1.014 2.086 2.086 0 0 0-1.785 3.148c3.213 5.38 4.766 11.3 4.888 18.63.083 4.86-.85 8.508-2.63 10.276-.824.82-1.841 1.218-3.11 1.218z" style="fill:#fff;fill-opacity:1;fill-rule:nonzero;stroke:none;stroke-width:1.1028" transform="matrix(1.33333 0 0 -1.33333 -271.561 440.453)"/><path d="M338.106 281.182c-4.957 0-8.727 5.03-8.727 11.23 0 6.199 3.77 11.227 8.727 11.227 4.97 0 8.737-5.028 8.737-11.227 0-6.2-3.766-11.23-8.737-11.23m0 25.529c-10.348 0-16.544-6.4-16.544-14.299 0-7.906 6.196-14.299 16.544-14.299 10.357 0 16.56 6.393 16.56 14.3 0 7.897-6.203 14.298-16.56 14.298M356.076 302.492h10.887v-23.194h8.219v23.194h9.195v3.163h-28.301zM387.368 302.492h9.188v-23.194h8.206v23.194h10.909v3.163h-28.303zM305.215 284.027v21.628h-7.878v-23.213a3.136 3.136 0 0 1 3.139-3.14h20.14v3.154h-13.828c-.863 0-1.573.705-1.573 1.57M420.129 302.522v-20.08a3.146 3.146 0 0 1 3.147-3.141h21.465v3.114h-15.154a1.56 1.56 0 0 0-1.563 1.568v7.766H444.5v3.088h-16.477v6.142c0 .856.691 1.569 1.563 1.569h15.154v3.106h-21.47a3.137 3.137 0 0 1-3.142-3.132" style="fill:#ed1c24;fill-opacity:1;fill-rule:nonzero;stroke:none;stroke-width:1.1028" transform="matrix(1.33333 0 0 -1.33333 -271.561 440.453)"/><path d="M474.801 281.727c-5.37 0-11.15 3.354-11.15 10.71 0 7.387 5.78 10.75 11.15 10.75 2.862 0 5.631-.946 6.996-1.83l.755-.485 1.048 5.167-.392.225c-1.62.908-4.476 2.003-8.908 2.003-7.936 0-16.368-5.55-16.368-15.83 0-10.256 8.432-15.786 16.368-15.786 3.662 0 5.887.415 7.927 1.491l.257.137 1.272 5.924-1.211-.728c-1.876-1.123-4.627-1.748-7.744-1.748M508.019 295.019h-13.845v12.65h-5.672v-30.47h5.672v12.792h13.845v-12.792h5.653v30.47h-5.653zM525.23 289.989h9.47v5.03h-9.47v7.62h11.308v5.03h-16.981v-30.47h18.577v5.04H525.23zM570.304 307.669s-10.08-19.767-10.95-21.724c-.753 1.65-11.106 21.724-11.106 21.724h-3.678l-2.629-30.47h5.168s1.447 16.913 1.532 18.087c.792-1.669 9.348-18.313 9.348-18.313h2.396s8.4 16.474 9.3 18.362c.084-1.448 1.579-18.135 1.579-18.135h5.448l-2.726 30.469zM581.942 277.2h5.667v30.469h-5.667zM609.149 281.727c-5.375 0-11.158 3.354-11.158 10.71 0 7.387 5.783 10.75 11.158 10.75 2.857 0 5.625-.946 6.992-1.83l.75-.485 1.05 5.167-.387.225c-1.623.908-4.48 2.003-8.91 2.003-7.933 0-16.362-5.55-16.362-15.83 0-10.256 8.43-15.786 16.362-15.786 3.664 0 5.887.415 7.928 1.491l.255.137 1.276 5.924-1.216-.728c-1.878-1.123-4.623-1.748-7.738-1.748M636.62 289.522h-6.518s3.046 7.545 3.266 8.19c.244-.734 3.252-8.19 3.252-8.19m-4.402 18.558-12.966-30.88h5.68l3.162 7.565h10.533l3.162-7.565h5.818l-12.971 30.88zM655.96 282.238v25.445h-5.672V277.2h18.537v5.038z" style="fill:#054975;fill-opacity:1;fill-rule:nonzero;stroke:none;stroke-width:1.1028" transform="matrix(1.33333 0 0 -1.33333 -271.561 440.453)"/><path d="M664.608 325.356c-7.55-.154-13.79-6.295-13.995-13.723h5.023c.203 4.742 4.098 8.697 8.972 8.697h17.006v-29.29c0-4.818-3.867-8.655-8.84-8.81v-5.03c7.654.294 13.701 6.336 13.866 13.84v34.316z" style="fill:#8cc63f;fill-opacity:1;fill-rule:nonzero;stroke:none;stroke-width:1.1028" transform="matrix(1.33333 0 0 -1.33333 -271.561 440.453)"/></svg>